<svg id="sun" viewBox="0 0 166.67 166.17" xmlns="http://www.w3.org/2000/svg" xmlns:xlink="http://www.w3.org/1999/xlink"><g transform="translate(816.04 -509.33) scale(2.3116)" fill="#ff0"><path d="M421.08 245.77c-16.19-.53-39.426-4.137-49.886-20.807 25.86 5.76 28.307-1.262 48.207-2.062" transform="rotate(28.673 -429.661 -762.49) scale(.32936)" id="a"/><use id="k" transform="rotate(30.011 -316.82 256.283)" width="1052.362" height="744.094" xlink:href="#a"/><use id="l" transform="rotate(30.22 -316.828 256.288)" width="1052.362" height="744.094" xlink:href="#k"/><use id="m" transform="rotate(30.511 -316.82 256.282)" width="1052.362" height="744.094" xlink:href="#l"/><use id="n" transform="rotate(30.312 -316.823 256.282)" width="1052.362" height="744.094" xlink:href="#m"/><use id="o" transform="rotate(29.793 -316.814 256.288)" width="1052.362" height="744.094" xlink:href="#n"/><use id="p" transform="rotate(29.939 -316.832 256.285)" width="1052.362" height="744.094" xlink:href="#o"/><use id="q" transform="rotate(29.839 -316.815 256.283)" width="1052.362" height="744.094" xlink:href="#p"/><use id="r" transform="rotate(29.792 -316.831 256.291)" width="1052.362" height="744.094" xlink:href="#q"/><use id="s" transform="rotate(29.892 -316.824 256.278)" width="1052.362" height="744.094" xlink:href="#r"/><use transform="rotate(29.475 -316.815 256.283)" width="1052.362" height="744.094" xlink:href="#s"/><use transform="rotate(-30.792 -317.28 256.545)" width="2104.936" height="2687.175" xlink:href="#a"/><path d="M-316.86 237.17c10.589 0 19.189 8.6 19.189 19.189s-8.6 19.181-19.189 19.181-19.181-8.593-19.181-19.181c0-10.589 8.593-19.189 19.181-19.189z" stroke="#fff" stroke-width="2.762"/></g></svg>
